<svg xmlns="http://www.w3.org/2000/svg"><symbol viewBox="0 0 16 15" id="src-1">
<path d="M14.2222 1.66667V13.3333H1.77778V1.66667H14.2222ZM14.2222 0H1.77778C0.8 0 0 0.75 0 1.66667V13.3333C0 14.25 0.8 15 1.77778 15H14.2222C15.2 15 16 14.25 16 13.3333V1.66667C16 0.75 15.2 0 14.2222 0Z" />
</symbol><symbol viewBox="0 0 15.269333 15.257107" id="src-2">
<path d="M13.9958 11.1226L12.1576 10.9128C11.7162 10.8621 11.282 11.0141 10.9708 11.3253L9.63924 12.6568C7.59123 11.6147 5.91229 9.94302 4.8702 7.88776L6.209 6.54895C6.52018 6.23776 6.67216 5.80355 6.6215 5.36211L6.41163 3.53843C6.32479 2.80751 5.70966 2.25751 4.97151 2.25751H3.71955C2.90179 2.25751 2.22153 2.93777 2.27219 3.75553C2.65574 9.93578 7.59847 14.8713 13.7714 15.2548C14.5892 15.3055 15.2695 14.6252 15.2695 13.8075V12.5555C15.2767 11.8246 14.7267 11.2095 13.9958 11.1226Z" />
</symbol><symbol viewBox="0 0 15 15" id="src-3">
<path d="M9 9C10.6575 9 12 7.6575 12 6C12 4.3425 10.6575 3 9 3C7.3425 3 6 4.3425 6 6C6 7.6575 7.3425 9 9 9ZM9 10.5C6.9975 10.5 3 11.505 3 13.5V14.25C3 14.6625 3.3375 15 3.75 15H14.25C14.6625 15 15 14.6625 15 14.25V13.5C15 11.505 11.0025 10.5 9 10.5Z" />
</symbol><symbol viewBox="0 0 12.145333 9.138668" id="src-4">
<path d="M1.95703 4.75166L1.88825 4.68604L1.81923 4.75141L0.93123 5.59258L0.854858 5.66492L0.930974 5.73753L4.42671 9.07236L4.49574 9.1382L4.56476 9.07236L12.069 1.91352L12.1449 1.84116L12.069 1.76881L11.1873 0.927644L11.1183 0.861826L11.0493 0.927611L4.49577 7.17353L1.95703 4.75166Z" fill="white" stroke="white" stroke-width="0.2"/>
</symbol><symbol viewBox="0 0 16.5 15" id="src-5">
<path d="M15 3H3C2.175 3 1.5075 3.675 1.5075 4.5L1.5 13.5C1.5 14.325 2.175 15 3 15H15C15.825 15 16.5 14.325 16.5 13.5V4.5C16.5 3.675 15.825 3 15 3ZM14.7 6.1875L9.3975 9.5025C9.1575 9.6525 8.8425 9.6525 8.6025 9.5025L3.3 6.1875C3.1125 6.0675 3 5.865 3 5.6475C3 5.145 3.5475 4.845 3.975 5.1075L9 8.25L14.025 5.1075C14.4525 4.845 15 5.145 15 5.6475C15 5.865 14.8875 6.0675 14.7 6.1875Z" />
</symbol><symbol viewBox="0 0 15 15" id="src-6">
<path d="M15 5.10786L13.8921 4L9.5 8.39214L5.10786 4L4 5.10786L8.39214 9.5L4 13.8921L5.10786 15L9.5 10.6079L13.8921 15L15 13.8921L10.6079 9.5L15 5.10786Z" fill="#2196F3"/>
</symbol><symbol viewBox="0 0 15 14" id="src-7">
<path d="M15 4.10786L13.8921 3L9.5 7.39214L5.10786 3L4 4.10786L8.39214 8.5L4 12.8921L5.10786 14L9.5 9.60786L13.8921 14L15 12.8921L10.6079 8.5L15 4.10786Z" />
</symbol></svg>