<svg width="0" height="0" class="hidden">
  <symbol version="1.1" xmlns="http://www.w3.org/2000/svg" viewBox="0 0 30 32" id="antenna">
    <title>antenna</title>
    <path fill="#212121" d="M29.875 22.097l-8.448-8.505 0.939-4.616c0.243 0.094 0.5 0.144 0.759 0.146h0.005c1.193 0.014 2.172-0.941 2.186-2.132 0.014-1.193-0.941-2.172-2.134-2.186s-2.172 0.941-2.186 2.134c-0.002 0.255 0.040 0.509 0.125 0.748l-4.962 0.606-8.094-8.132c-0.099-0.101-0.236-0.16-0.377-0.16-0.139 0-0.274 0.057-0.373 0.156l-1.514 1.505c-0.208 0.208-0.208 0.545 0 0.752l0.814 0.825c-3.156 5.8-2.13 12.979 2.521 17.663 0.042 0.042 0.092 0.075 0.146 0.099-0.033 0.179-0.052 0.363-0.052 0.547v6.186h-6.403c-1.474 0.002-2.667 1.193-2.67 2.667v1.066c0 0.295 0.241 0.533 0.535 0.533h24.547c0.295 0 0.533-0.238 0.533-0.533v-1.066c-0.002-1.474-1.196-2.665-2.667-2.667h-6.403v-2.743c1.002 0.212 2.024 0.318 3.050 0.321 2.46-0.002 4.88-0.616 7.045-1.783l0.818 0.823c0.099 0.101 0.233 0.158 0.375 0.16 0.142-0.002 0.276-0.057 0.375-0.156l1.512-1.505c0.21-0.208 0.21-0.545 0-0.755zM22.377 6.234c0.42-0.415 1.094-0.415 1.509 0.005 0.417 0.417 0.415 1.092-0.002 1.507-0.2 0.198-0.472 0.311-0.755 0.311h-0.002c-0.59-0.005-1.064-0.484-1.061-1.073 0.002-0.281 0.113-0.552 0.314-0.75zM21.123 9.738l-0.599 2.946-1.177-1.184zM20.517 8.835l-1.922 1.91-1.486-1.493zM23.104 28.8c0.884 0 1.599 0.717 1.599 1.601v0.533h-23.479v-0.533c0-0.884 0.717-1.601 1.601-1.601zM15.632 26.667v1.066h-5.337v-1.066zM10.295 25.599v-4.052c0-1.295 1.198-2.347 2.67-2.347 1.469 0 2.667 1.052 2.667 2.347v4.052zM16.7 23.903v-2.356c0-1.882-1.677-3.413-3.736-3.413-1.333-0.021-2.578 0.656-3.283 1.785-4.061-4.274-4.974-10.646-2.281-15.887l18.613 18.708c-2.875 1.462-6.17 1.873-9.314 1.163zM27.995 23.219l-0.752-0.755-20.316-20.425 0.755-0.752 7.939 7.979c0.005 0 0.007 0.007 0.009 0.009l13.123 13.193z"></path>
    <path fill="#2196f3" d="M12.969 20.267h-0.005c-0.884-0.002-1.604 0.715-1.604 1.597-0.002 0.884 0.715 1.601 1.599 1.604h0.005c0.884 0 1.601-0.715 1.601-1.599 0.002-0.882-0.712-1.599-1.597-1.601zM13.342 22.245c-0.099 0.099-0.236 0.156-0.377 0.156-0.295-0.002-0.533-0.243-0.531-0.538 0-0.139 0.057-0.276 0.156-0.375s0.233-0.153 0.375-0.156c0.295 0.002 0.531 0.243 0.531 0.538-0.002 0.139-0.059 0.276-0.158 0.375z"></path>
  </symbol>
  <symbol version="1.1" xmlns="http://www.w3.org/2000/svg" viewBox="0 0 32 32" id="astronaut">
    <title>astronaut</title>
    <path fill="#2196f3" d="M31.974 4.524c-0.064-0.191-0.229-0.333-0.429-0.363l-1.913-0.276-0.854-1.731c-0.179-0.366-0.776-0.366-0.955 0l-0.856 1.731-1.91 0.276c-0.2 0.031-0.368 0.17-0.432 0.363-0.061 0.193-0.009 0.406 0.134 0.547l1.384 1.347-0.328 1.903c-0.033 0.2 0.050 0.403 0.212 0.524 0.167 0.12 0.382 0.134 0.564 0.040l1.708-0.899 1.71 0.899c0.078 0.040 0.163 0.061 0.248 0.061 0.111 0 0.222-0.035 0.314-0.104 0.165-0.118 0.248-0.321 0.212-0.521l-0.328-1.903 1.384-1.347c0.144-0.141 0.196-0.354 0.134-0.547zM29.512 5.851c-0.125 0.123-0.184 0.3-0.153 0.472l0.191 1.113-1-0.526c-0.078-0.040-0.165-0.061-0.25-0.061s-0.17 0.021-0.248 0.061l-1 0.526 0.189-1.113c0.031-0.172-0.026-0.349-0.151-0.472l-0.811-0.79 1.12-0.163c0.172-0.024 0.323-0.134 0.401-0.292l0.5-1.012 0.5 1.012c0.078 0.158 0.229 0.269 0.401 0.292l1.12 0.163z"></path>
    <path fill="#2196f3" d="M26.134 20.521h-1.068v1.068h1.068z"></path>
    <path fill="#2196f3" d="M26.134 22.656h-1.068v1.066h1.068z"></path>
    <path fill="#2196f3" d="M27.2 21.59h-1.066v1.066h1.066z"></path>
    <path fill="#2196f3" d="M25.066 21.59h-1.066v1.066h1.066z"></path>
    <path fill="#2196f3" d="M22.401 26.389h-1.068v1.066h1.068z"></path>
    <path fill="#2196f3" d="M22.401 28.521h-1.068v1.068h1.068z"></path>
    <path fill="#2196f3" d="M23.467 27.455h-1.066v1.066h1.066z"></path>
    <path fill="#2196f3" d="M21.333 27.455h-1.066v1.066h1.066z"></path>
    <path fill="#2196f3" d="M16 24.255h-1.066v1.068h1.066z"></path>
    <path fill="#2196f3" d="M16 26.389h-1.066v1.066h1.066z"></path>
    <path fill="#2196f3" d="M17.066 25.323h-1.066v1.066h1.066z"></path>
    <path fill="#2196f3" d="M14.934 25.323h-1.068v1.066h1.068z"></path>
    <path fill="#2196f3" d="M5.866 6.123h-1.066v1.066h1.066z"></path>
    <path fill="#2196f3" d="M5.866 8.255h-1.066v1.068h1.066z"></path>
    <path fill="#2196f3" d="M6.934 7.189h-1.068v1.066h1.068z"></path>
    <path fill="#2196f3" d="M4.8 7.189h-1.066v1.066h1.066z"></path>
    <path fill="#212121" d="M24.715 14.16c-0.288-0.389-0.71-0.639-1.189-0.705-0.481-0.068-0.955 0.059-1.34 0.351l-1.252 0.96-1.896 1.417-1.358-0.54c2.42-1.087 4.113-3.509 4.113-6.321 0-3.823-3.123-6.934-6.962-6.934-3.837 0-6.96 3.111-6.96 6.934 0 1.384 0.415 2.675 1.12 3.759l-2.764-0.026c-0.002 0-0.002 0-0.005 0-0.009 0-0.016 0.005-0.024 0.005-0.052 0.002-0.104 0.014-0.156 0.033-0.012 0.005-0.026 0.007-0.038 0.012-0.007 0.002-0.012 0.005-0.019 0.007l-3.233 1.597-1.894 0.91c-0.021 0.009-0.042 0.021-0.064 0.035-0.755 0.502-1.012 1.488-0.599 2.295 0.222 0.429 0.597 0.745 1.057 0.889 0.177 0.057 0.359 0.083 0.54 0.083 0.29 0 0.575-0.071 0.84-0.21l1.387-0.738 2.264-1.17 1.356-0.007-5.441 5.415c0 0 0 0-0.002 0l-1.337 1.335c-0.316 0.314-0.491 0.731-0.491 1.177s0.175 0.863 0.491 1.179c0.323 0.323 0.752 0.483 1.179 0.483s0.854-0.16 1.179-0.483l1.314-1.309 1.741-1.3 0.901 0.896-3.101 3.090c-0.316 0.314-0.491 0.731-0.491 1.177 0 0.443 0.175 0.863 0.491 1.179 0.325 0.323 0.752 0.483 1.179 0.483 0.429 0 0.856-0.16 1.182-0.483l3.481-3.467c0 0 0-0.002 0-0.002l1.012-1-0.005-0.005c0.007-0.005 0.017-0.007 0.021-0.014l5.167-5.658 3.469 0.493c0.026 0.005 0.052 0.007 0.075 0.007 0.066 0 0.127-0.017 0.189-0.040 0.017-0.005 0.033-0.014 0.050-0.024 0.019-0.009 0.038-0.014 0.057-0.026l3.212-2.134c0.012-0.007 0.019-0.021 0.031-0.028 0.012-0.009 0.028-0.014 0.040-0.026l1.271-1.191c0.663-0.62 0.752-1.634 0.212-2.361zM2.13 17.771c-0.172 0.092-0.37 0.111-0.557 0.050-0.189-0.057-0.34-0.184-0.427-0.356-0.163-0.314-0.068-0.696 0.215-0.903l1.311-0.632 0.318 0.925 0.132 0.389zM5.627 15.943l-1.547 0.8-0.257-0.748-0.182-0.535 2.026-1.002zM20.726 9.323c0 0.917-0.219 1.783-0.599 2.559l-4.182-1.901c-0.042-0.573-0.34-1.073-0.788-1.387l1.465-4.861c2.377 0.757 4.104 2.974 4.104 5.59zM8.939 9.323c0-3.236 2.644-5.868 5.894-5.868 0.252 0 0.5 0.021 0.745 0.052l-1.432 4.755c-0.019 0-0.038-0.007-0.057-0.007-1.033 0-1.873 0.837-1.873 1.868 0 1.028 0.84 1.866 1.873 1.866 0.693 0 1.292-0.382 1.618-0.943l3.861 1.755c-1.073 1.446-2.795 2.389-4.736 2.389-3.25 0-5.894-2.632-5.894-5.866zM14.894 10.123c0 0.441-0.361 0.8-0.804 0.8-0.446 0-0.807-0.358-0.807-0.8s0.361-0.8 0.807-0.8c0.443 0 0.804 0.358 0.804 0.8zM2.465 25.146c-0.236 0.233-0.618 0.233-0.854 0-0.113-0.113-0.177-0.262-0.177-0.422 0-0.158 0.064-0.309 0.177-0.422l0.962-0.958 0.851 0.847zM5.679 28.88c-0.236 0.233-0.62 0.233-0.856 0-0.113-0.113-0.175-0.262-0.175-0.422 0-0.158 0.061-0.309 0.175-0.422l0.962-0.958 0.403 0.401 0.45 0.446zM9.16 25.41c0 0 0 0-0.002 0.002l-1.764 1.759-0.851-0.847 1.762-1.757c0.002 0 0.002 0 0.002 0 0.040-0.040 0.066-0.090 0.090-0.137 0.007-0.014 0.021-0.026 0.026-0.040 0.017-0.040 0.019-0.085 0.026-0.127 0.002-0.026 0.014-0.047 0.014-0.073 0-0.035-0.012-0.071-0.021-0.106-0.005-0.031-0.005-0.064-0.019-0.094-0.019-0.050-0.054-0.094-0.090-0.139-0.009-0.012-0.014-0.026-0.026-0.038 0 0 0 0-0.002-0.002l-1.606-1.599c-0.016-0.017-0.038-0.024-0.059-0.038-0.026-0.024-0.054-0.042-0.085-0.059-0.031-0.014-0.061-0.024-0.094-0.031-0.033-0.012-0.066-0.019-0.104-0.021-0.031-0.002-0.061 0.002-0.094 0.005-0.035 0.005-0.068 0.009-0.104 0.021-0.033 0.009-0.064 0.026-0.094 0.045-0.021 0.012-0.042 0.014-0.061 0.028l-1.774 1.323-0.901-0.896 2.399-2.387 4.361 4.29zM15.979 18.394c-0.014-0.002-0.028 0.005-0.045 0.002-0.040-0.002-0.075 0-0.116 0.007-0.031 0.005-0.059 0.012-0.087 0.021-0.035 0.012-0.066 0.028-0.097 0.047s-0.057 0.038-0.083 0.061c-0.014 0.012-0.028 0.017-0.040 0.031l-4.698 5.144-4.33-4.255 2.835-2.818c0.208-0.21 0.21-0.547 0-0.755-0.104-0.106-0.243-0.158-0.38-0.158l-2.219 0.014 0.028-1.608 3.104 0.028c1.264 1.292 3.028 2.099 4.981 2.099 0.436 0 0.863-0.045 1.278-0.123 0.040 0.033 0.080 0.066 0.13 0.085l2.41 0.96 0.153 0.759 0.177 0.884zM20.021 18.573l-0.314-1.559 1.446-1.080 0.38 0.502 0.568 0.755zM23.774 15.741l-0.837 0.785-0.932-1.236 0.833-0.637c0.153-0.12 0.349-0.167 0.542-0.144 0.193 0.028 0.363 0.127 0.479 0.285 0.217 0.29 0.182 0.698-0.085 0.946z"></path>
    <path fill="#212121" d="M13.601 18.545l-2.142-2.134c-0.208-0.208-0.545-0.208-0.752 0l-2.144 2.134c-0.099 0.099-0.156 0.236-0.156 0.377s0.054 0.278 0.156 0.377l2.144 2.134c0.104 0.104 0.241 0.156 0.375 0.156 0.137 0 0.274-0.052 0.377-0.156l2.142-2.134c0.101-0.099 0.158-0.236 0.158-0.377s-0.057-0.278-0.158-0.377zM11.083 20.302l-1.387-1.38 1.387-1.38 1.387 1.38z"></path>
    <path fill="#212121" d="M17.165 5.071l-0.259 1.035c0.073 0.019 1.738 0.453 1.738 2.149h1.066c0-2.017-1.665-2.965-2.545-3.184z"></path>
    <path fill="#212121" d="M19.71 9.323h-1.066v1.066h1.066z"></path>
  </symbol>
  <symbol version="1.1" xmlns="http://www.w3.org/2000/svg" viewBox="0 0 32 32" id="clock">
    <title>clock</title>
    <path fill="#212121" d="M31.297 15.302c-0.002-8.453-6.856-15.304-15.309-15.302s-15.302 6.856-15.3 15.309c0 6.658 4.307 12.55 10.649 14.575 0.061 0.019 0.123 0.028 0.186 0.028 0.12 0 0.238-0.033 0.342-0.094 0.137-0.080 0.236-0.205 0.283-0.356l3.866-12.25c1.057-0.005 1.908-0.866 1.903-1.922s-0.866-1.91-1.922-1.903c-0.285 0-0.566 0.066-0.821 0.191l-5.106-5.106c-0.252-0.245-0.656-0.238-0.901 0.014-0.238 0.248-0.238 0.639 0 0.887l5.104 5.109c-0.392 0.8-0.17 1.764 0.535 2.309l-3.682 11.675c-7.278-2.682-11.005-10.755-8.325-18.033 2.682-7.278 10.755-11.005 18.033-8.323s11.005 10.755 8.323 18.033c-1.309 3.554-4 6.429-7.462 7.972l-0.399-1.873c-0.071-0.347-0.41-0.566-0.755-0.493-0.108 0.024-0.21 0.075-0.292 0.149l-3.837 3.425c-0.264 0.236-0.288 0.637-0.052 0.901 0.075 0.085 0.175 0.149 0.283 0.184l4.899 1.564c0.335 0.109 0.693-0.078 0.802-0.413 0.035-0.106 0.040-0.219 0.017-0.328l-0.392-1.837c5.665-2.389 9.342-7.943 9.33-14.090zM15.993 14.663c0.351 0 0.637 0.285 0.637 0.639 0 0.351-0.285 0.637-0.637 0.637-0.354 0-0.639-0.285-0.639-0.637 0-0.354 0.285-0.639 0.639-0.639zM18.092 29.528l2.184-1.948 0.604 2.84z"></path>
    <path fill="#2196f3" d="M15.354 3.184v1.276c0 0.354 0.285 0.639 0.639 0.639 0.351 0 0.637-0.285 0.637-0.639v-1.276c0-0.351-0.285-0.637-0.637-0.637-0.354 0-0.639 0.285-0.639 0.637z"></path>
    <path fill="#2196f3" d="M3.875 14.663c-0.351 0-0.637 0.285-0.637 0.639 0 0.351 0.285 0.637 0.637 0.637h1.276c0.354 0 0.639-0.285 0.639-0.637 0-0.354-0.285-0.639-0.639-0.639z"></path>
    <path fill="#2196f3" d="M28.108 15.939c0.351 0 0.637-0.285 0.637-0.637 0-0.354-0.285-0.639-0.637-0.639h-1.276c-0.351 0-0.637 0.285-0.637 0.639 0 0.351 0.285 0.637 0.637 0.637z"></path>
  </symbol>
  <symbol version="1.1" xmlns="http://www.w3.org/2000/svg" viewBox="0 0 43 32" id="convert">
    <title>convert</title>
    <path  d="M38.667 0h-34.667c-2.208 0-4 1.681-4 3.736v22.403c0 2.056 1.792 3.736 4 3.736h34.667c2.208 0 4-1.681 4-3.736v-22.403c0-2.056-1.792-3.736-4-3.736zM38.667 2.486c0.181 0 0.347 0.042 0.514 0.097l-17.847 14.444-17.847-14.444c0.167-0.056 0.333-0.097 0.514-0.097zM38.667 27.389h-34.667c-0.736 0-1.333-0.569-1.333-1.25v-20.917l17.792 14.389c0.25 0.208 0.569 0.306 0.875 0.306s0.625-0.097 0.875-0.306l17.792-14.389v20.917c0 0.681-0.597 1.25-1.333 1.25z"></path>
  </symbol>
  <symbol version="1.1" xmlns="http://www.w3.org/2000/svg" viewBox="0 0 32 32" id="diagram">
    <title>diagram</title>
    <path fill="#2196f3" d="M14.925 14.965h1.066v4.797h-1.066z"></path>
    <path fill="#2196f3" d="M19.191 17.097h1.066v2.665h-1.066z"></path>
    <path fill="#2196f3" d="M10.66 18.696h1.066v1.066h-1.066z"></path>
    <path fill="#2196f3" d="M7.462 18.163h1.066v1.599h-1.066z"></path>
    <path fill="#212121" d="M1.599 28.29h25.587c0.882 0 1.599-0.715 1.599-1.599v-2.132c0-0.882-0.717-1.599-1.599-1.599h-0.533v-13.292l3.028-2.868c0.703 0.347 1.552 0.134 2.012-0.5s0.396-1.507-0.151-2.068c-0.55-0.559-1.422-0.644-2.066-0.198-0.644 0.448-0.873 1.292-0.542 2.002l-2.281 2.163v-1.229c0-0.884-0.717-1.599-1.599-1.599h-21.323c-0.882 0-1.599 0.715-1.599 1.599v15.991h-0.533c-0.882 0-1.599 0.717-1.599 1.599v2.132c0 0.884 0.717 1.599 1.599 1.599zM30.384 4.837c0.295 0 0.533 0.238 0.533 0.533s-0.238 0.533-0.533 0.533c-0.295 0-0.533-0.238-0.533-0.533s0.238-0.533 0.533-0.533zM3.198 6.969c0-0.295 0.238-0.533 0.533-0.533h21.323c0.295 0 0.533 0.238 0.533 0.533v2.238l-1.066 1.012v-2.184c0-0.295-0.241-0.533-0.533-0.533h-19.191c-0.295 0-0.533 0.238-0.533 0.533v13.325c0 0.295 0.238 0.533 0.533 0.533h19.191c0.292 0 0.533-0.238 0.533-0.533v-9.675l1.066-1.009v12.283h-22.389zM7.995 13.899c-0.722-0.002-1.354 0.479-1.545 1.175-0.193 0.693 0.104 1.432 0.724 1.8s1.41 0.276 1.929-0.226l1.851 0.929c0.217 0.108 0.476 0.059 0.637-0.123l3.939-4.429 3.873 2.901c0.208 0.156 0.498 0.139 0.686-0.040l3.366-3.186v8.13h-18.125v-12.259h18.125v2.66l-3.771 3.571-3.906-2.927c-0.222-0.165-0.533-0.134-0.717 0.073l-3.993 4.493-1.493-0.748c0.009-0.064 0.017-0.13 0.019-0.193 0-0.882-0.715-1.599-1.599-1.599zM8.528 15.498c0 0.295-0.238 0.533-0.533 0.533s-0.533-0.238-0.533-0.533c0-0.295 0.238-0.533 0.533-0.533s0.533 0.238 0.533 0.533zM11.726 24.026h5.33v0.533c0 0.295-0.238 0.533-0.533 0.533h-4.264c-0.292 0-0.533-0.238-0.533-0.533zM1.066 24.559c0-0.295 0.238-0.533 0.533-0.533h9.061v0.533c0 0.884 0.717 1.599 1.599 1.599h4.264c0.884 0 1.601-0.715 1.601-1.599v-0.533h9.061c0.295 0 0.533 0.238 0.533 0.533v2.132c0 0.295-0.238 0.533-0.533 0.533h-25.587c-0.295 0-0.533-0.238-0.533-0.533z"></path>
  </symbol>
  <symbol version="1.1" xmlns="http://www.w3.org/2000/svg" viewBox="0 0 32 32" id="email-black">
    <title>email-black</title>
    <path d="M26.67 5.33h-21.339c-1.464 0-2.652 1.205-2.652 2.67l-0.009 16c0 1.464 1.196 2.67 2.661 2.67h21.339c1.464 0 2.661-1.205 2.661-2.67v-16c0-1.464-1.196-2.67-2.661-2.67zM26.134 11l-9.429 5.893c-0.429 0.268-0.982 0.268-1.411 0l-9.429-5.893c-0.33-0.214-0.536-0.571-0.536-0.964 0-0.893 0.973-1.42 1.732-0.955l8.938 5.589 8.938-5.589c0.759-0.464 1.732 0.063 1.732 0.955 0 0.393-0.205 0.75-0.536 0.964z"></path>
  </symbol>
  <symbol version="1.1" xmlns="http://www.w3.org/2000/svg" viewBox="0 0 32 32" id="facebook">
    <title>facebook</title>
    <path  d="M21.333 5.317h2.917v-5.092c-0.5-0.067-2.233-0.225-4.258-0.225-4.208 0-7.092 2.65-7.092 7.517v4.483h-4.65v5.692h4.65v14.308h5.7v-14.308h4.458l0.708-5.692h-5.175v-3.917c0.008-1.642 0.45-2.767 2.742-2.767z"></path>
  </symbol>
  <symbol version="1.1" xmlns="http://www.w3.org/2000/svg" viewBox="0 0 32 32" id="icon-check">
    <title>icon-check</title>
    <path fill="#2196f3" d="M4 0h24c2.205 0 4 1.909 4 4.261v23.477c0 2.352-1.795 4.261-4 4.261h-24c-2.205 0-4-1.909-4-4.261v-23.477c0-2.352 1.795-4.261 4-4.261z"></path>
    <path fill="#fff" stroke="#fff" stroke-linejoin="miter" stroke-linecap="butt" stroke-miterlimit="4" stroke-width="0.5818" d="M7.909 16.534l-0.136-0.136-0.136 0.136-1.932 1.955 0.159 0.148 6.989 7.114 0.136 0.148 0.136-0.148 15.17-15.42-0.159-0.159-1.761-1.795-0.136-0.136-0.136 0.136-13.114 13.33zM7.909 16.534"></path>
  </symbol>
  <symbol version="1.1" xmlns="http://www.w3.org/2000/svg" viewBox="0 0 32 32" id="instagram">
    <title>instagram</title>
    <path  d="M31.967 9.408c-0.075-1.7-0.35-2.867-0.742-3.883-0.408-1.075-1.033-2.033-1.85-2.833-0.8-0.817-1.767-1.45-2.833-1.85-1.017-0.392-2.183-0.667-3.883-0.742-1.708-0.083-2.258-0.1-6.6-0.1s-4.883 0.017-6.592 0.092c-1.7 0.075-2.875 0.35-3.883 0.75-1.075 0.4-2.042 1.025-2.842 1.85-0.808 0.8-1.442 1.767-1.842 2.825-0.392 1.025-0.667 2.183-0.742 3.883-0.083 1.717-0.1 2.258-0.1 6.6 0 4.35 0.017 4.892 0.092 6.6 0.075 1.7 0.35 2.867 0.742 3.883 0.408 1.075 1.042 2.033 1.85 2.833 0.8 0.817 1.775 1.442 2.833 1.842 1.017 0.4 2.183 0.675 3.883 0.75 1.708 0.075 2.25 0.092 6.592 0.092 4.35 0 4.892-0.017 6.6-0.092 1.7-0.075 2.867-0.35 3.883-0.75 2.15-0.825 3.85-2.525 4.675-4.675 0.4-1.025 0.675-2.183 0.75-3.883 0.075-1.708 0.092-2.25 0.092-6.6 0-4.342-0.008-4.883-0.083-6.592zM29.083 22.475c-0.067 1.558-0.325 2.408-0.55 2.967-0.533 1.392-1.642 2.5-3.033 3.042-0.567 0.217-1.417 0.475-2.967 0.55-1.692 0.075-2.2 0.092-6.467 0.092s-4.783-0.017-6.467-0.092c-1.558-0.075-2.408-0.333-2.967-0.55-0.692-0.258-1.325-0.667-1.842-1.2-0.525-0.517-0.933-1.142-1.192-1.833-0.217-0.567-0.483-1.417-0.55-2.967-0.075-1.692-0.092-2.2-0.092-6.467s0.017-4.783 0.092-6.467c0.067-1.558 0.333-2.408 0.55-2.967 0.258-0.692 0.667-1.325 1.2-1.842 0.517-0.525 1.142-0.933 1.842-1.192 0.558-0.217 1.408-0.483 2.967-0.55 1.692-0.075 2.192-0.092 6.467-0.092s4.775 0.017 6.458 0.092c1.567 0.067 2.408 0.333 2.975 0.55 0.692 0.258 1.325 0.667 1.833 1.192 0.533 0.525 0.942 1.15 1.192 1.842 0.225 0.558 0.483 1.408 0.55 2.967 0.075 1.692 0.1 2.2 0.1 6.467s-0.025 4.767-0.1 6.458z"></path>
    <path  d="M16.058 7.783c-4.533 0-8.217 3.683-8.217 8.217 0 4.542 3.683 8.225 8.217 8.225 4.542 0 8.225-3.683 8.225-8.225 0-4.533-3.683-8.217-8.225-8.217zM16.058 21.333c-2.942 0-5.333-2.383-5.333-5.333 0-2.942 2.392-5.333 5.333-5.333s5.333 2.392 5.333 5.333c0 2.95-2.392 5.333-5.333 5.333z"></path>
    <path  d="M26.525 7.458c0 1.058-0.858 1.917-1.917 1.917-1.067 0-1.925-0.858-1.925-1.917s0.858-1.917 1.925-1.917c1.058 0 1.917 0.858 1.917 1.917z"></path>
  </symbol>
  <symbol version="1.1" xmlns="http://www.w3.org/2000/svg" viewBox="0 0 32 32" id="linkedin">
    <title>linkedin</title>
    <path  d="M31.992 32h0.008v-11.733c0-5.742-1.233-10.167-7.95-10.167-3.225 0-5.392 1.767-6.275 3.45h-0.092v-2.917h-6.367v21.367h6.625v-10.583c0-2.783 0.533-5.475 3.983-5.475 3.4 0 3.45 3.175 3.45 5.658v10.4z"></path>
    <path  d="M0.525 10.633h6.642v21.367h-6.642z"></path>
    <path  d="M3.842 0c-2.117 0-3.842 1.725-3.842 3.842 0 2.125 1.725 3.883 3.842 3.883 2.125 0 3.842-1.758 3.842-3.883 0-2.117-1.717-3.842-3.842-3.842z"></path>
  </symbol>
  <symbol version="1.1" xmlns="http://www.w3.org/2000/svg" viewBox="0 0 29 32" id="logo1">
    <title>logo1</title>
    <path  d="M3.922 0l4.774 4.429h13.321v12.348l4.774 4.429v-21.206z"></path>
    <path  d="M0 4.24v20.601h22.216v-8.189l-13.378-12.405zM17.986 21.828h-14.47v-13.855h1.020v12.916h13.449z"></path>
    <path  d="M6.399 28.662l0.534-1.078h0.446l-0.777 1.436v0.838h-0.405v-0.838l-0.78-1.436h0.449zM8.693 29.328h-0.899l-0.189 0.53h-0.419l0.875-2.274h0.365l0.878 2.274h-0.422zM7.905 29.010h0.672l-0.334-0.943zM10.284 29.243c0-0.105 0.027-0.199 0.088-0.287 0.057-0.088 0.172-0.193 0.345-0.314-0.091-0.111-0.152-0.206-0.189-0.284-0.034-0.078-0.054-0.155-0.054-0.226 0-0.179 0.057-0.321 0.166-0.422 0.111-0.105 0.26-0.159 0.449-0.159 0.169 0 0.307 0.051 0.412 0.149 0.111 0.098 0.166 0.216 0.166 0.361 0 0.095-0.027 0.182-0.074 0.26-0.051 0.081-0.128 0.159-0.24 0.24l-0.159 0.111 0.449 0.52c0.064-0.125 0.095-0.267 0.095-0.419h0.338c0 0.28-0.068 0.51-0.203 0.689l0.345 0.395h-0.453l-0.128-0.152c-0.166 0.122-0.365 0.182-0.595 0.182s-0.412-0.057-0.551-0.176c-0.139-0.122-0.206-0.277-0.206-0.47zM11.051 29.588c0.132 0 0.253-0.044 0.368-0.128l-0.507-0.588-0.051 0.034c-0.128 0.095-0.193 0.206-0.193 0.328 0 0.105 0.037 0.189 0.105 0.253 0.071 0.068 0.162 0.101 0.277 0.101zM10.838 28.122c0 0.088 0.054 0.196 0.166 0.328l0.176-0.118 0.051-0.037c0.064-0.057 0.098-0.132 0.098-0.223 0-0.057-0.024-0.108-0.068-0.149-0.047-0.044-0.105-0.064-0.176-0.064-0.074 0-0.135 0.024-0.179 0.074s-0.068 0.111-0.068 0.189zM15.057 29.118c-0.024 0.243-0.115 0.432-0.274 0.568s-0.372 0.203-0.639 0.203c-0.182 0-0.348-0.041-0.49-0.128-0.139-0.084-0.247-0.206-0.324-0.365s-0.115-0.345-0.118-0.554v-0.209c0-0.216 0.037-0.405 0.115-0.568 0.078-0.166 0.189-0.291 0.334-0.378s0.314-0.135 0.503-0.135c0.257 0 0.463 0.071 0.618 0.206 0.159 0.135 0.247 0.328 0.274 0.578h-0.402c-0.020-0.162-0.068-0.28-0.145-0.351-0.078-0.074-0.193-0.111-0.345-0.111-0.176 0-0.311 0.064-0.405 0.189s-0.142 0.311-0.142 0.551v0.203c0 0.247 0.044 0.432 0.132 0.564 0.091 0.128 0.223 0.193 0.395 0.193 0.159 0 0.28-0.034 0.358-0.105 0.081-0.071 0.132-0.186 0.152-0.348zM17.274 28.78c0 0.223-0.041 0.419-0.118 0.588s-0.193 0.297-0.338 0.389c-0.145 0.088-0.314 0.132-0.503 0.132s-0.358-0.044-0.507-0.132c-0.145-0.091-0.26-0.22-0.341-0.389-0.078-0.166-0.118-0.358-0.118-0.574v-0.128c0-0.223 0.037-0.419 0.118-0.588s0.193-0.301 0.338-0.389c0.149-0.091 0.318-0.139 0.507-0.139s0.355 0.047 0.5 0.135c0.149 0.088 0.26 0.216 0.341 0.385 0.081 0.166 0.122 0.361 0.122 0.584zM16.868 28.662c0-0.253-0.047-0.446-0.145-0.581s-0.233-0.199-0.412-0.199c-0.176 0-0.311 0.064-0.412 0.199-0.098 0.135-0.145 0.324-0.149 0.568v0.132c0 0.25 0.051 0.443 0.149 0.581 0.098 0.135 0.237 0.203 0.416 0.203s0.314-0.068 0.409-0.199c0.098-0.135 0.145-0.328 0.145-0.584z"></path>
  </symbol>
  <symbol version="1.1" xmlns="http://www.w3.org/2000/svg" viewBox="0 0 25 32" id="logo2">
    <title>logo2</title>
    <path  d="M10.449 1.804h0.083c0.154 0 0.324 0.016 0.49 0.032 0.734 0.051 1.462 0.16 2.18 0.327v-1.763c-0.737-0.183-1.49-0.304-2.25-0.356-0.288-0.022-0.596-0.038-0.91-0.045h-0.263c-1.522 0.006-3.038 0.202-4.513 0.583-1.683 0.417-3.295 1.074-4.792 1.946v17.478c1.442-0.785 2.978-1.381 4.567-1.779 1.253-0.32 2.538-0.519 3.833-0.59h0.051c0.215-0.010 0.433-0.016 0.654-0.019v-1.788c-1.679 0.019-3.353 0.244-4.981 0.66-0.603 0.157-1.186 0.327-1.731 0.513l-0.625 0.212v-13.625l0.266-0.128c2.032-0.965 4.231-1.522 6.474-1.651 0.016-0.003 0.035-0.003 0.055 0 0.247-0.013 0.497-0.019 0.74-0.019h0.282c0.128 0.003 0.256 0.006 0.388 0.013z"></path>
    <path  d="M14.837 3.651c-0.407 0-0.814-0.013-1.205-0.045-0.465-0.032-0.946-0.090-1.401-0.167-0.276-0.048-0.548-0.103-0.814-0.163v17.276c1.122 0.276 2.272 0.41 3.426 0.404 1.522-0.006 3.038-0.202 4.513-0.583 1.683-0.42 3.295-1.074 4.792-1.945v-17.163c-1.439 0.782-2.974 1.378-4.564 1.779-1.551 0.397-3.144 0.603-4.747 0.609zM21.744 3.949l0.625-0.208v13.628l-0.266 0.128c-1.022 0.487-2.090 0.872-3.186 1.144-1.33 0.346-2.699 0.522-4.074 0.529-0.41 0-0.817-0.016-1.215-0.051l-0.426-0.038v-14.016l0.497 0.032c0.362 0.026 0.734 0.035 1.141 0.035 1.747-0.006 3.484-0.231 5.173-0.663 0.58-0.154 1.16-0.327 1.731-0.519z"></path>
    <path  d="M1.686 25.978c-0.090-0.093-0.199-0.167-0.317-0.215-0.122-0.048-0.25-0.070-0.378-0.067-0.135 0-0.272 0.026-0.397 0.077-0.119 0.045-0.224 0.115-0.314 0.205-0.087 0.090-0.154 0.195-0.199 0.311-0.048 0.125-0.074 0.256-0.074 0.388v2.333c-0.003 0.167 0.026 0.33 0.093 0.481 0.054 0.119 0.135 0.224 0.234 0.314 0.093 0.077 0.202 0.135 0.321 0.163 0.112 0.032 0.231 0.048 0.349 0.048 0.128 0.003 0.26-0.026 0.375-0.080 0.119-0.051 0.224-0.125 0.311-0.215 0.090-0.093 0.157-0.199 0.205-0.314 0.051-0.119 0.077-0.244 0.074-0.372v-0.263h-0.609v0.208c0.003 0.070-0.010 0.141-0.035 0.208-0.019 0.051-0.051 0.096-0.090 0.131-0.038 0.032-0.080 0.055-0.128 0.067-0.042 0.013-0.083 0.022-0.125 0.022-0.054 0.006-0.112-0.003-0.16-0.026-0.051-0.019-0.096-0.055-0.128-0.099-0.058-0.093-0.087-0.202-0.080-0.314v-2.176c-0.003-0.122 0.022-0.24 0.074-0.349 0.032-0.048 0.077-0.087 0.131-0.112 0.051-0.026 0.109-0.035 0.167-0.029 0.054 0 0.106 0.010 0.154 0.032s0.090 0.058 0.119 0.099c0.071 0.090 0.106 0.202 0.103 0.314v0.202h0.603v-0.237c0.003-0.141-0.022-0.279-0.074-0.41-0.045-0.122-0.115-0.234-0.202-0.327z"></path>
    <path  d="M5.311 25.949c-0.196-0.163-0.442-0.253-0.696-0.256-0.125 0.003-0.247 0.026-0.365 0.067s-0.228 0.106-0.321 0.189c-0.103 0.093-0.183 0.205-0.237 0.33-0.061 0.141-0.093 0.295-0.090 0.452v2.237c-0.003 0.157 0.029 0.314 0.090 0.458 0.054 0.122 0.138 0.228 0.237 0.314 0.093 0.087 0.202 0.154 0.321 0.199 0.119 0.042 0.24 0.064 0.365 0.064s0.247-0.022 0.365-0.064c0.122-0.045 0.234-0.112 0.33-0.199s0.176-0.192 0.231-0.314c0.061-0.144 0.093-0.301 0.087-0.458v-2.237c0.003-0.157-0.026-0.311-0.087-0.452-0.054-0.125-0.135-0.237-0.231-0.33zM5.026 28.968c0.003 0.061-0.003 0.122-0.026 0.176-0.019 0.058-0.054 0.106-0.096 0.147-0.080 0.067-0.183 0.106-0.288 0.106-0.103 0-0.205-0.038-0.285-0.106-0.045-0.042-0.077-0.090-0.099-0.147-0.019-0.055-0.029-0.115-0.022-0.176v-2.237c-0.006-0.061 0.003-0.122 0.022-0.176 0.022-0.058 0.054-0.109 0.099-0.147 0.080-0.070 0.183-0.106 0.285-0.106 0.106 0 0.208 0.035 0.288 0.106 0.042 0.038 0.077 0.090 0.096 0.147 0.022 0.055 0.029 0.115 0.026 0.176z"></path>
    <path  d="M10.074 29.968v-4.237h-0.59l-0.769 2.244h-0.010l-0.779-2.244h-0.58v4.237h0.606v-2.577h0.010l0.593 1.82h0.304l0.596-1.82h0.013v2.577z"></path>
    <path  d="M13.513 26.026c-0.093-0.103-0.212-0.183-0.343-0.231-0.141-0.045-0.288-0.067-0.439-0.064h-0.901v4.237h0.606v-1.654h0.311c0.189 0.006 0.375-0.032 0.545-0.115 0.138-0.077 0.253-0.189 0.33-0.324 0.070-0.115 0.119-0.24 0.141-0.372 0.022-0.157 0.032-0.32 0.032-0.481 0.006-0.205-0.016-0.407-0.061-0.606-0.038-0.147-0.115-0.282-0.221-0.391zM13.202 27.32c-0.003 0.077-0.022 0.151-0.058 0.221-0.032 0.064-0.087 0.115-0.154 0.147-0.090 0.038-0.189 0.058-0.285 0.055h-0.276v-1.442h0.311c0.093-0.006 0.186 0.013 0.272 0.051 0.064 0.038 0.112 0.093 0.141 0.157 0.035 0.077 0.051 0.157 0.055 0.237 0 0.090 0 0.183 0 0.282s0.006 0.199 0 0.292z"></path>
    <path  d="M16.375 25.731h-0.497l-0.933 4.237h0.603l0.18-0.91h0.824l0.176 0.91h0.603zM15.817 28.481l0.298-1.538h0.010l0.295 1.538z"></path>
    <path  d="M20.276 28.282h-0.010l-0.913-2.551h-0.58v4.237h0.606v-2.548h0.010l0.926 2.548h0.567v-4.237h-0.606z"></path>
    <path  d="M23.968 25.731l-0.487 1.683h-0.010l-0.487-1.683h-0.641l0.83 2.445v1.792h0.606v-1.792l0.83-2.445z"></path>
    <path  d="M0 31.167h0.292v0.817h0.199v-0.817h0.288v-0.167h-0.779z"></path>
    <path  d="M2.449 31l-0.381 0.984h0.208l0.080-0.224h0.394l0.083 0.224h0.215l-0.391-0.984zM2.417 31.593l0.135-0.365 0.131 0.365z"></path>
    <path  d="M4.865 31.619h0.228v0.128c-0.064 0.055-0.147 0.083-0.234 0.083-0.038 0-0.077-0.006-0.115-0.022-0.035-0.016-0.067-0.042-0.093-0.074-0.051-0.074-0.077-0.163-0.074-0.256 0-0.218 0.096-0.327 0.285-0.327 0.048-0.006 0.099 0.006 0.141 0.035 0.038 0.029 0.067 0.074 0.080 0.122l0.196-0.038c-0.042-0.192-0.179-0.288-0.417-0.288-0.128-0.003-0.25 0.042-0.343 0.125-0.051 0.048-0.090 0.109-0.115 0.173-0.022 0.067-0.032 0.138-0.029 0.205-0.003 0.135 0.042 0.269 0.128 0.372 0.048 0.048 0.106 0.087 0.17 0.112s0.135 0.035 0.202 0.032c0.154 0.003 0.304-0.055 0.417-0.157v-0.388h-0.426z"></path>
    <path  d="M7.337 31h-0.199v0.984h0.689v-0.17h-0.49z"></path>
    <path  d="M9.426 31h-0.199v0.984h0.199z"></path>
    <path  d="M11.468 31.657l-0.404-0.657h-0.192v0.984h0.186v-0.644l0.394 0.644h0.199v-0.984h-0.183z"></path>
    <path  d="M13.314 31.548h0.49v-0.167h-0.49v-0.215h0.529v-0.167h-0.728v0.984h0.747v-0.17h-0.548z"></path>
    <path  d="M17.792 31.388h-0.388v-0.388h-0.195v0.984h0.195v-0.433h0.388v0.433h0.199v-0.984h-0.199z"></path>
    <path  d="M19.651 31.548h0.49v-0.167h-0.49v-0.215h0.529v-0.167h-0.728v0.984h0.747v-0.17h-0.548z"></path>
    <path  d="M22.167 31.548c0.173-0.026 0.26-0.115 0.26-0.272 0.006-0.042 0-0.083-0.019-0.122-0.016-0.038-0.042-0.074-0.077-0.096-0.090-0.045-0.189-0.067-0.288-0.058h-0.417v0.984h0.199v-0.413h0.038c0.042-0.003 0.083 0.006 0.122 0.022 0.029 0.019 0.055 0.042 0.070 0.074l0.215 0.311h0.237l-0.122-0.192c-0.051-0.096-0.125-0.176-0.218-0.237zM21.968 31.413h-0.144v-0.247h0.154c0.067-0.006 0.138 0.003 0.202 0.022 0.013 0.013 0.026 0.029 0.032 0.048 0.010 0.016 0.013 0.035 0.010 0.055 0 0.019-0.006 0.038-0.013 0.055-0.010 0.016-0.022 0.032-0.038 0.045-0.064 0.019-0.135 0.026-0.202 0.022z"></path>
    <path  d="M24.067 31.548h0.49v-0.167h-0.49v-0.215h0.529v-0.167h-0.728v0.984h0.747v-0.17h-0.548z"></path>
  </symbol>
  <symbol version="1.1" xmlns="http://www.w3.org/2000/svg" viewBox="0 0 31 32" id="logo3">
    <title>logo3</title>
    <path  d="M4.797 31.102c0.012 0 0.023 0.004 0.035 0.008 0.008 0.004 0.020 0.012 0.027 0.020l0.152 0.16c-0.117 0.129-0.27 0.234-0.438 0.305-0.195 0.078-0.406 0.113-0.617 0.109-0.203 0.004-0.398-0.031-0.586-0.102-0.164-0.066-0.316-0.164-0.438-0.289-0.125-0.129-0.223-0.281-0.285-0.445-0.066-0.184-0.102-0.375-0.098-0.57-0.004-0.195 0.031-0.391 0.105-0.574 0.066-0.164 0.172-0.316 0.301-0.445 0.133-0.125 0.293-0.223 0.469-0.289 0.191-0.070 0.395-0.105 0.602-0.102 0.188-0.004 0.379 0.027 0.555 0.094 0.156 0.063 0.297 0.148 0.422 0.258l-0.133 0.172c-0.008 0.012-0.020 0.020-0.031 0.031-0.016 0.008-0.035 0.012-0.055 0.012-0.020-0.004-0.039-0.008-0.055-0.020l-0.070-0.047-0.098-0.055c-0.043-0.023-0.086-0.043-0.129-0.059-0.059-0.020-0.117-0.035-0.18-0.047-0.074-0.012-0.152-0.020-0.23-0.016-0.148-0.004-0.293 0.023-0.43 0.074-0.129 0.051-0.246 0.121-0.34 0.215-0.098 0.102-0.172 0.219-0.219 0.344-0.055 0.145-0.082 0.301-0.082 0.453 0 0.156 0.027 0.313 0.082 0.461 0.047 0.125 0.121 0.242 0.215 0.34 0.090 0.094 0.199 0.164 0.324 0.211 0.125 0.051 0.262 0.074 0.398 0.074 0.078 0 0.16-0.004 0.238-0.016 0.129-0.016 0.25-0.055 0.359-0.121 0.055-0.035 0.105-0.074 0.152-0.113 0.020-0.020 0.047-0.027 0.074-0.031z"></path>
    <path  d="M9.289 30.297c0.004 0.191-0.031 0.387-0.105 0.566-0.063 0.164-0.16 0.316-0.293 0.441-0.129 0.125-0.285 0.223-0.457 0.289-0.383 0.137-0.801 0.137-1.184 0-0.172-0.066-0.328-0.164-0.457-0.289-0.129-0.129-0.23-0.281-0.297-0.445-0.137-0.367-0.137-0.77 0-1.137 0.066-0.168 0.168-0.316 0.297-0.449 0.129-0.121 0.285-0.215 0.457-0.277 0.379-0.137 0.801-0.137 1.184 0 0.172 0.066 0.328 0.164 0.457 0.289 0.129 0.129 0.23 0.277 0.293 0.441 0.074 0.184 0.109 0.375 0.105 0.57zM8.883 30.297c0.004-0.156-0.023-0.309-0.074-0.457-0.043-0.125-0.113-0.242-0.207-0.34-0.094-0.094-0.207-0.168-0.332-0.215-0.273-0.102-0.582-0.102-0.859 0-0.125 0.047-0.234 0.121-0.328 0.215-0.094 0.098-0.164 0.215-0.211 0.34-0.098 0.297-0.098 0.617 0 0.914 0.047 0.125 0.117 0.242 0.211 0.34 0.094 0.094 0.203 0.164 0.328 0.215 0.277 0.094 0.582 0.094 0.859 0 0.125-0.051 0.238-0.121 0.332-0.215 0.090-0.098 0.164-0.215 0.207-0.34 0.051-0.148 0.078-0.301 0.074-0.457z"></path>
    <path  d="M12.355 30.773l0.039 0.102c0.016-0.035 0.031-0.066 0.047-0.102s0.031-0.066 0.051-0.098l0.992-1.695c0.020-0.031 0.039-0.047 0.059-0.055 0.023-0.008 0.051-0.008 0.082-0.008h0.293v2.754h-0.348v-2.023c0-0.027 0-0.055 0-0.086-0.004-0.031-0.004-0.063 0-0.094l-1 1.715c-0.016 0.027-0.035 0.047-0.059 0.063-0.027 0.016-0.055 0.023-0.086 0.023h-0.059c-0.027 0-0.059-0.008-0.082-0.023-0.027-0.012-0.047-0.035-0.059-0.063l-1.031-1.727c0 0.031 0 0.066 0 0.098s0 0.063 0 0.086v2.027h-0.336v-2.75h0.293c0.027 0 0.055 0 0.082 0.008 0.023 0.012 0.043 0.031 0.055 0.055l1.016 1.695c0.020 0.031 0.035 0.066 0.051 0.098z"></path>
    <path  d="M16.094 30.637v1.031h-0.387v-2.75h0.867c0.164-0.004 0.328 0.016 0.484 0.059 0.125 0.035 0.242 0.094 0.34 0.172 0.090 0.074 0.156 0.168 0.195 0.27 0.047 0.113 0.070 0.234 0.066 0.352 0.004 0.121-0.023 0.242-0.070 0.355-0.047 0.105-0.121 0.199-0.211 0.273-0.102 0.082-0.219 0.145-0.344 0.184-0.152 0.043-0.309 0.066-0.469 0.063zM16.094 30.344h0.473c0.102 0 0.203-0.016 0.301-0.043 0.082-0.027 0.156-0.066 0.219-0.117 0.059-0.051 0.102-0.113 0.133-0.184 0.031-0.074 0.047-0.152 0.047-0.23 0.004-0.078-0.012-0.156-0.039-0.227-0.031-0.070-0.078-0.133-0.137-0.188-0.148-0.109-0.336-0.16-0.523-0.148h-0.473z"></path>
    <path  d="M21.324 31.672h-0.309c-0.031 0.004-0.063-0.008-0.086-0.023-0.023-0.020-0.039-0.039-0.051-0.063l-0.266-0.668h-1.328l-0.273 0.668c-0.008 0.023-0.027 0.043-0.047 0.059-0.027 0.020-0.059 0.031-0.090 0.027h-0.305l1.164-2.754h0.406zM19.398 30.648h1.098l-0.465-1.121c-0.035-0.082-0.066-0.168-0.086-0.258l-0.047 0.145c-0.012 0.043-0.027 0.082-0.043 0.117z"></path>
    <path  d="M23.004 28.93c0.023 0.012 0.043 0.031 0.059 0.051l1.699 2.078c0-0.035 0-0.066 0-0.098s0-0.063 0-0.094v-1.949h0.348v2.754h-0.191c-0.027 0.004-0.055-0.004-0.082-0.016-0.023-0.012-0.043-0.031-0.063-0.051l-1.699-2.074c0.004 0.031 0.004 0.063 0 0.094 0 0.031 0 0.059 0 0.086v1.961h-0.348v-2.754h0.207c0.023 0 0.047 0.004 0.070 0.012z"></path>
    <path  d="M27.977 30.578v1.094h-0.387v-1.094l-1.078-1.66h0.352c0.027 0 0.059 0.008 0.082 0.023 0.020 0.020 0.039 0.039 0.051 0.063l0.676 1.070c0.027 0.047 0.051 0.086 0.070 0.129 0.020 0.039 0.035 0.078 0.047 0.117l0.051-0.121c0.020-0.043 0.039-0.086 0.066-0.125l0.664-1.078c0.012-0.020 0.031-0.039 0.051-0.059 0.023-0.020 0.051-0.027 0.082-0.027h0.352z"></path>
    <path  d="M12.164 24.293c0.168 0.020 0.34 0.035 0.512 0.051 2.625-1.102 4.844-2.902 6.383-5.18s2.328-4.93 2.266-7.625l-2.891-2.711c0.586 2.871 0.313 5.836-0.797 8.566-1.105 2.73-3 5.121-5.473 6.898z"></path>
    <path  d="M11.129 24.168l0.078 0.016c2.645-1.773 4.656-4.25 5.785-7.105 1.125-2.855 1.309-5.965 0.531-8.922l-4.117-3.863c1.664 3.176 2.336 6.727 1.934 10.246s-1.863 6.855-4.211 9.629z"></path>
    <path  d="M25.098 14.723c-0.699 2.965-2.398 5.633-4.844 7.617-0.715 0.582-1.484 1.102-2.305 1.551 1.992-0.551 3.824-1.52 5.355-2.84 1.527-1.316 2.715-2.945 3.465-4.762z"></path>
    <path  d="M24.445 14.289l-2.379-2.23c-0.047 2.543-0.816 5.027-2.234 7.195-1.414 2.172-3.426 3.945-5.82 5.137h0.012c0.535 0 1.066-0.027 1.598-0.090 2.238-0.855 4.215-2.219 5.754-3.965s2.594-3.824 3.070-6.047z"></path>
    <path  d="M11.473 2.664l-2.836-2.664c-2.535 0.918-4.719 2.535-6.258 4.637-1.543 2.102-2.371 4.59-2.379 7.141 0.008 2.816 1.020 5.551 2.875 7.77 1.852 2.215 4.441 3.793 7.355 4.477 2.605-2.977 4.129-6.648 4.352-10.488 0.223-3.844-0.867-7.648-3.109-10.871z"></path>
    <path  d="M31 13.879c-0.012-3.344-1.43-6.547-3.953-8.91-2.52-2.363-5.938-3.695-9.5-3.707-1.648 0-3.281 0.285-4.816 0.84l17.371 16.293c0.594-1.441 0.898-2.973 0.898-4.516z"></path>
  </symbol>
  <symbol version="1.1" xmlns="http://www.w3.org/2000/svg" viewBox="0 0 59 32" id="logo4">
    <title>logo4</title>
    <path  d="M9.148 9.547h-0.004c-1.668 0-3.020 1.332-3.020 2.973s1.352 2.973 3.020 2.973h0.004c1.668 0 3.020-1.332 3.020-2.973s-1.352-2.973-3.020-2.973z"></path>
    <path  d="M31.445 8.598c-0.004-2.277-0.93-4.461-2.566-6.074-1.637-1.609-3.859-2.52-6.176-2.523-2.32 0.004-4.539 0.91-6.18 2.523-1.641 1.609-2.563 3.797-2.566 6.074v12.566c0 0 17.484-1.914 17.488-12.563z"></path>
    <path  d="M0 25.289c0.004 1.586 0.645 3.105 1.785 4.227s2.688 1.754 4.297 1.758c1.613-0.004 3.16-0.637 4.297-1.758 1.141-1.121 1.785-2.641 1.789-4.223v-8.746c0 0-12.168 1.336-12.168 8.742zM6.082 26.855c-0.313 0-0.621-0.090-0.883-0.266-0.262-0.172-0.465-0.414-0.586-0.703-0.121-0.285-0.152-0.598-0.094-0.902 0.063-0.305 0.215-0.582 0.438-0.805 0.223-0.219 0.508-0.367 0.816-0.426 0.309-0.063 0.629-0.031 0.922 0.086 0.289 0.121 0.539 0.32 0.715 0.578 0.172 0.258 0.266 0.563 0.266 0.871 0.004 0.207-0.039 0.41-0.117 0.602-0.082 0.191-0.199 0.363-0.348 0.512-0.148 0.145-0.324 0.262-0.516 0.34-0.195 0.078-0.402 0.121-0.613 0.121z"></path>
    <path  d="M18.504 25.883h-1.246v1.297h-0.648v-3.172h2.051v0.527h-1.402v0.82h1.246zM21.617 25.664c0 0.313-0.055 0.59-0.164 0.824s-0.266 0.418-0.469 0.543c-0.203 0.129-0.438 0.191-0.699 0.191s-0.496-0.063-0.699-0.188c-0.203-0.125-0.363-0.309-0.477-0.539-0.113-0.238-0.168-0.508-0.168-0.813v-0.156c0-0.313 0.055-0.59 0.164-0.824 0.113-0.238 0.27-0.422 0.473-0.547 0.207-0.129 0.438-0.191 0.699-0.191 0.266 0 0.496 0.063 0.699 0.191 0.207 0.125 0.363 0.309 0.473 0.547 0.113 0.234 0.168 0.512 0.168 0.82zM20.961 25.523c0-0.336-0.059-0.586-0.176-0.762-0.117-0.172-0.285-0.258-0.508-0.258-0.215 0-0.383 0.086-0.5 0.258-0.121 0.168-0.18 0.418-0.18 0.75v0.152c0 0.324 0.059 0.578 0.176 0.758 0.117 0.176 0.289 0.266 0.512 0.266 0.215 0 0.383-0.086 0.5-0.258s0.176-0.422 0.176-0.754zM23.723 26.348c0-0.125-0.043-0.219-0.133-0.281-0.086-0.070-0.242-0.137-0.465-0.211-0.227-0.074-0.402-0.148-0.535-0.219-0.355-0.195-0.535-0.457-0.535-0.785 0-0.172 0.047-0.324 0.145-0.461 0.094-0.133 0.234-0.238 0.41-0.313 0.18-0.078 0.383-0.113 0.605-0.113 0.227 0 0.426 0.039 0.602 0.121s0.313 0.199 0.406 0.348c0.102 0.148 0.148 0.32 0.148 0.512h-0.648c0-0.148-0.043-0.258-0.137-0.34-0.090-0.082-0.219-0.121-0.383-0.121-0.156 0-0.281 0.035-0.367 0.102-0.090 0.066-0.133 0.156-0.133 0.266 0 0.105 0.051 0.191 0.152 0.262 0.105 0.070 0.258 0.133 0.457 0.195 0.367 0.113 0.637 0.25 0.805 0.414 0.172 0.168 0.254 0.375 0.254 0.621 0 0.273-0.102 0.492-0.309 0.648s-0.484 0.23-0.832 0.23c-0.242 0-0.461-0.043-0.66-0.133s-0.352-0.211-0.457-0.367c-0.102-0.156-0.156-0.336-0.156-0.539h0.652c0 0.348 0.207 0.523 0.621 0.523 0.156 0 0.273-0.031 0.359-0.094 0.090-0.063 0.133-0.152 0.133-0.266zM27.18 24.535h-0.965v2.645h-0.645v-2.645h-0.953v-0.527h2.563zM29.445 25.805h-1.246v0.852h1.461v0.523h-2.109v-3.172h2.105v0.527h-1.457v0.758h1.246zM31.207 26.020h-0.52v1.16h-0.645v-3.172h1.168c0.371 0 0.656 0.082 0.859 0.25s0.301 0.402 0.301 0.707c0 0.219-0.047 0.398-0.141 0.543-0.090 0.145-0.23 0.258-0.418 0.344l0.68 1.301v0.027h-0.695zM30.688 25.488h0.523c0.164 0 0.289-0.039 0.379-0.125 0.090-0.082 0.133-0.199 0.133-0.344 0-0.152-0.039-0.27-0.125-0.355s-0.215-0.129-0.387-0.129h-0.523zM34.617 26.063v1.117h-0.648v-3.172h1.227c0.238 0 0.445 0.043 0.625 0.129s0.316 0.211 0.414 0.375c0.094 0.16 0.145 0.34 0.145 0.547 0 0.309-0.105 0.555-0.316 0.734s-0.504 0.27-0.879 0.27zM34.617 25.531h0.578c0.172 0 0.305-0.039 0.391-0.121 0.094-0.082 0.137-0.195 0.137-0.348 0-0.156-0.043-0.281-0.137-0.379-0.090-0.094-0.215-0.145-0.375-0.148h-0.594zM38.719 25.805h-1.246v0.852h1.461v0.523h-2.109v-3.172h2.105v0.527h-1.457v0.758h1.246zM41.727 24.535h-0.965v2.645h-0.648v-2.645h-0.949v-0.527h2.563zM43.988 25.805h-1.242v0.852h1.461v0.523h-2.109v-3.172h2.105v0.527h-1.457v0.758h1.242zM45.75 26.020h-0.516v1.16h-0.648v-3.172h1.168c0.375 0 0.66 0.082 0.863 0.25 0.199 0.168 0.301 0.402 0.301 0.707 0 0.219-0.047 0.398-0.141 0.543s-0.234 0.258-0.422 0.344l0.68 1.301v0.027h-0.695zM45.234 25.488h0.523c0.164 0 0.289-0.039 0.379-0.125 0.090-0.082 0.133-0.199 0.133-0.344 0-0.152-0.043-0.27-0.129-0.355-0.082-0.086-0.211-0.129-0.387-0.129h-0.52zM49.043 26.348c0-0.125-0.043-0.219-0.129-0.281-0.086-0.070-0.242-0.137-0.465-0.211-0.227-0.074-0.402-0.148-0.535-0.219-0.355-0.195-0.535-0.457-0.535-0.785 0-0.172 0.047-0.324 0.141-0.461 0.098-0.133 0.234-0.238 0.414-0.313 0.18-0.078 0.383-0.113 0.605-0.113s0.426 0.039 0.602 0.121c0.176 0.082 0.309 0.199 0.406 0.348s0.148 0.32 0.148 0.512h-0.648c0-0.148-0.047-0.258-0.137-0.34s-0.219-0.121-0.383-0.121c-0.16 0-0.281 0.035-0.371 0.102-0.086 0.066-0.129 0.156-0.129 0.266 0 0.105 0.051 0.191 0.152 0.262 0.105 0.070 0.254 0.133 0.457 0.195 0.367 0.113 0.637 0.25 0.805 0.414 0.168 0.168 0.254 0.375 0.254 0.621 0 0.273-0.105 0.492-0.309 0.648-0.207 0.156-0.484 0.23-0.832 0.23-0.242 0-0.465-0.043-0.664-0.133-0.195-0.090-0.348-0.211-0.453-0.367s-0.156-0.336-0.156-0.539h0.648c0 0.348 0.207 0.523 0.625 0.523 0.152 0 0.273-0.031 0.359-0.094s0.129-0.152 0.129-0.266z"></path>
  </symbol>
  <symbol version="1.1" xmlns="http://www.w3.org/2000/svg" viewBox="0 0 39 32" id="logo5">
    <title>logo5</title>
    <path  d="M2.989 26.743c0.154 0.193 0.236 0.436 0.232 0.686 0.007 0.164-0.021 0.329-0.082 0.479s-0.157 0.286-0.275 0.393c-0.3 0.229-0.668 0.343-1.039 0.318h-1.825v-4.361h1.789c0.35-0.025 0.7 0.079 0.989 0.289 0.114 0.1 0.207 0.225 0.268 0.364 0.061 0.143 0.086 0.296 0.079 0.45 0.011 0.243-0.064 0.479-0.207 0.668-0.139 0.175-0.332 0.293-0.543 0.339 0.239 0.046 0.461 0.179 0.614 0.375zM0.85 26.086h0.764c0.171 0.011 0.346-0.039 0.486-0.146 0.057-0.054 0.1-0.121 0.129-0.193 0.029-0.075 0.043-0.154 0.036-0.232 0.004-0.079-0.007-0.161-0.036-0.232-0.029-0.075-0.071-0.139-0.129-0.196-0.143-0.107-0.321-0.161-0.5-0.146h-0.75zM2.175 27.757c0.061-0.057 0.107-0.125 0.139-0.2 0.032-0.079 0.046-0.161 0.039-0.243 0.007-0.086-0.007-0.168-0.039-0.246s-0.082-0.146-0.143-0.204c-0.15-0.111-0.336-0.168-0.521-0.157h-0.8v1.2h0.811c0.182 0.011 0.364-0.043 0.514-0.15z"></path>
    <path  d="M6.646 28.618l-0.996-1.704h-0.375v1.704h-0.854v-4.361h1.618c0.411-0.029 0.814 0.104 1.129 0.371 0.229 0.236 0.364 0.546 0.386 0.879 0.021 0.329-0.071 0.657-0.264 0.925-0.2 0.236-0.471 0.389-0.771 0.443l1.057 1.743zM5.275 26.318h0.7c0.486 0 0.729-0.221 0.729-0.661 0.007-0.089-0.007-0.179-0.036-0.264-0.032-0.082-0.079-0.161-0.139-0.225-0.154-0.132-0.354-0.193-0.554-0.175h-0.707z"></path>
    <path  d="M11.321 27.739h-1.704l-0.304 0.879h-0.896l1.568-4.314h0.968l1.561 4.314h-0.896zM11.093 27.079l-0.621-1.839-0.625 1.839z"></path>
    <path  d="M17.175 28.618h-0.85l-1.904-2.968v2.968h-0.846v-4.361h0.846l1.904 2.982v-2.982h0.85z"></path>
    <path  d="M22.021 27.571c-0.175 0.332-0.443 0.6-0.768 0.771-0.368 0.189-0.779 0.286-1.193 0.275h-1.514v-4.361h1.514c0.414-0.011 0.821 0.079 1.193 0.268 0.325 0.168 0.593 0.432 0.768 0.761 0.175 0.354 0.268 0.746 0.268 1.143s-0.093 0.789-0.268 1.143zM21.050 27.468c0.243-0.289 0.375-0.657 0.375-1.039s-0.132-0.75-0.375-1.043c-0.293-0.261-0.675-0.393-1.064-0.368h-0.589v2.821h0.589c0.389 0.025 0.771-0.107 1.064-0.371z"></path>
    <path  d="M11.854 0c0 0 10.961 4.246 10.729 10.389v10.393c0 0-10.954-4.25-10.725-10.393z"></path>
    <path  d="M32.35 18.35c2.071-1.464 4.464-2.368 6.964-2.636v-3.25c-2.882 1.136-5.325 3.204-6.964 5.886z"></path>
    <path  d="M31.107 19.329c1.693-3.5 4.632-6.2 8.207-7.546v-9.375c0 0-15.611 6.046-15.282 14.796v14.796c0 0 0.696-0.271 1.789-0.779 0-0.471 0-0.95 0.050-1.429 0.325-4.061 2.207-7.825 5.236-10.464z"></path>
    <path  d="M29.621 24.825c0.082-1.025 0.264-2.043 0.546-3.029-1.886 2.279-3.029 5.104-3.264 8.082-0.025 0.282-0.036 0.564-0.043 0.854 0.886-0.436 1.918-0.982 3.004-1.621-0.279-1.411-0.361-2.854-0.243-4.286z"></path>
    <path  d="M30.243 24.879c-0.104 1.296-0.039 2.6 0.193 3.879 4.264-2.618 9.057-6.664 8.871-11.554v-0.425c-3.046 0.35-5.896 1.718-8.114 3.889-0.518 1.346-0.839 2.768-0.95 4.211z"></path>
  </symbol>
  <symbol version="1.1" xmlns="http://www.w3.org/2000/svg" viewBox="0 0 61 32" id="logo6">
    <title>logo6</title>
    <path  d="M30.793 14.854c-0.286-0.425-0.425-0.925-0.393-1.429v-2.075c0-0.639 0.132-1.121 0.393-1.45 0.261-0.332 0.707-0.496 1.339-0.496 0.596 0 1.018 0.143 1.268 0.421 0.275 0.361 0.407 0.8 0.375 1.243v0.489h-1.064v-0.496c0.004-0.161-0.007-0.321-0.032-0.482-0.014-0.111-0.068-0.211-0.15-0.289-0.111-0.082-0.246-0.121-0.386-0.111-0.146-0.011-0.293 0.032-0.407 0.118-0.093 0.086-0.154 0.196-0.175 0.318-0.032 0.168-0.046 0.339-0.043 0.514v2.518c-0.018 0.243 0.029 0.486 0.136 0.707 0.054 0.075 0.129 0.132 0.214 0.171 0.086 0.036 0.182 0.050 0.275 0.039 0.136 0.011 0.271-0.032 0.375-0.114 0.089-0.082 0.143-0.189 0.161-0.307 0.025-0.168 0.036-0.336 0.032-0.504v-0.511h1.064v0.464c0.032 0.464-0.096 0.921-0.368 1.307-0.243 0.307-0.661 0.461-1.275 0.461-0.611 0-1.075-0.164-1.339-0.507z"></path>
    <path  d="M35.229 14.875c-0.268-0.321-0.404-0.793-0.404-1.414v-2.182c0-0.618 0.136-1.086 0.404-1.4 0.271-0.318 0.721-0.475 1.35-0.475s1.075 0.157 1.346 0.475c0.268 0.314 0.404 0.782 0.404 1.4v2.182c0 0.614-0.136 1.089-0.411 1.414-0.271 0.325-0.718 0.486-1.339 0.486-0.618 0-1.079-0.164-1.35-0.486zM37.075 14.354c0.096-0.204 0.143-0.425 0.129-0.646v-2.671c0.014-0.218-0.029-0.436-0.125-0.636-0.054-0.075-0.129-0.136-0.218-0.171-0.089-0.039-0.186-0.054-0.282-0.039-0.093-0.011-0.193 0-0.279 0.039-0.089 0.036-0.164 0.096-0.221 0.171-0.096 0.2-0.139 0.414-0.129 0.636v2.682c-0.011 0.221 0.032 0.446 0.129 0.646 0.064 0.068 0.139 0.121 0.225 0.161 0.086 0.036 0.179 0.057 0.275 0.057 0.093 0 0.186-0.021 0.275-0.057 0.086-0.039 0.161-0.093 0.221-0.161z"></path>
    <path  d="M39.611 9.468h1.146l0.864 4.029 0.882-4.029h1.114l0.114 5.814h-0.825l-0.089-4.043-0.85 4.043h-0.664l-0.882-4.057-0.079 4.057h-0.836z"></path>
    <path  d="M45.018 9.468h1.786c1.029 0 1.546 0.55 1.546 1.65 0 1.054-0.543 1.582-1.629 1.579h-0.607v2.586h-1.104zM46.543 11.954c0.111 0.011 0.221 0.004 0.325-0.029 0.107-0.032 0.2-0.086 0.282-0.157 0.129-0.196 0.182-0.425 0.161-0.657 0.004-0.175-0.014-0.354-0.054-0.525-0.018-0.057-0.043-0.114-0.082-0.161-0.036-0.046-0.086-0.086-0.139-0.118-0.154-0.068-0.321-0.1-0.493-0.093h-0.425v1.739z"></path>
    <path  d="M49.939 9.468h1.186l1.214 5.814h-1.029l-0.239-1.343h-1.057l-0.246 1.343h-1.043zM50.95 13.268l-0.411-2.439-0.414 2.439z"></path>
    <path  d="M53.321 9.468h0.771l1.479 3.314v-3.314h0.914v5.814h-0.736l-1.486-3.464v3.464h-0.946z"></path>
    <path  d="M58.629 13.064l-1.229-3.589h1.036l0.75 2.307 0.704-2.307h1.014l-1.214 3.589v2.218h-1.061z"></path>
    <path  d="M32.496 17.821v0.304h-0.9v2.364h-0.375v-2.364h-0.907v-0.304z"></path>
    <path  d="M35.318 20.489h-0.289c-0.032 0-0.061-0.007-0.082-0.029-0.021-0.014-0.039-0.036-0.050-0.061l-0.261-0.632h-1.246l-0.261 0.632c-0.007 0.029-0.021 0.054-0.039 0.071-0.025 0.018-0.054 0.029-0.082 0.029h-0.293l1.104-2.668h0.386zM33.493 19.496h1.039l-0.439-1.082c-0.032-0.082-0.061-0.168-0.082-0.254-0.014 0.054-0.029 0.1-0.043 0.143l-0.039 0.111z"></path>
    <path  d="M37.221 20.225c0.068 0.004 0.136 0.004 0.207 0 0.057-0.004 0.118-0.014 0.175-0.032 0.054-0.011 0.107-0.029 0.161-0.046 0.046-0.021 0.096-0.043 0.146-0.068v-0.596h-0.443c-0.011 0-0.021-0.004-0.032-0.007-0.007-0.004-0.018-0.007-0.025-0.014s-0.014-0.014-0.018-0.021c-0.004-0.011-0.007-0.018-0.004-0.029v-0.204h0.854v1.021c-0.068 0.046-0.143 0.089-0.221 0.125-0.079 0.039-0.161 0.068-0.243 0.093-0.089 0.025-0.182 0.043-0.275 0.054-0.107 0.011-0.214 0.018-0.325 0.018-0.189 0-0.379-0.032-0.554-0.1-0.164-0.064-0.314-0.157-0.443-0.279-0.121-0.121-0.218-0.264-0.282-0.421-0.071-0.179-0.107-0.364-0.104-0.554 0-0.189 0.032-0.379 0.1-0.557 0.064-0.157 0.161-0.304 0.286-0.421 0.125-0.121 0.275-0.214 0.439-0.279 0.189-0.068 0.389-0.1 0.593-0.096 0.1-0.004 0.204 0.007 0.307 0.021 0.089 0.014 0.175 0.036 0.261 0.068 0.079 0.029 0.15 0.064 0.221 0.104 0.068 0.043 0.132 0.089 0.193 0.143l-0.107 0.164c-0.007 0.014-0.021 0.025-0.036 0.036-0.014 0.007-0.032 0.014-0.050 0.014-0.025 0-0.050-0.007-0.068-0.021-0.036-0.018-0.068-0.039-0.111-0.064-0.046-0.029-0.096-0.050-0.146-0.071-0.064-0.025-0.132-0.046-0.204-0.057-0.093-0.018-0.186-0.025-0.279-0.025-0.146 0-0.289 0.025-0.425 0.075-0.125 0.046-0.236 0.118-0.325 0.211-0.093 0.096-0.161 0.207-0.207 0.332-0.096 0.286-0.096 0.6 0 0.886 0.050 0.129 0.125 0.243 0.221 0.336 0.089 0.093 0.2 0.164 0.321 0.214 0.143 0.043 0.289 0.061 0.439 0.050z"></path>
    <path  d="M40.736 20.182h1.204v0.307h-1.571v-2.668h0.379z"></path>
    <path  d="M43.193 20.489h-0.375v-2.668h0.375z"></path>
    <path  d="M44.596 17.836c0.021 0.011 0.043 0.029 0.057 0.046l1.614 2.011c-0.004-0.032-0.004-0.064 0-0.096 0-0.029 0-0.057 0-0.086v-1.9h0.329v2.679h-0.193c-0.025 0-0.054-0.004-0.079-0.018-0.025-0.011-0.043-0.029-0.061-0.050l-1.611-2.007c0 0.032 0 0.061 0 0.093 0 0.029 0 0.057 0 0.082v1.9h-0.314v-2.668h0.196c0.021 0 0.043 0.004 0.061 0.014z"></path>
    <path  d="M49.371 17.821v0.293h-1.336v0.882h1.082v0.282h-1.082v0.911h1.336v0.293h-1.725v-2.661z"></path>
    <path  d="M9.846 1.361l16.746 4.55v15.946l-16.746-4.55zM8.771 0v18.082l18.896 5.136v-18.082z"></path>
    <path  d="M18.896 31.611l-18.896-5.139v-18.079l18.896 5.136z"></path>
    <path  d="M9.082 1.154l16.532 4.493-7.029 6.729-16.536-4.493zM8.771 0l-8.771 8.393 18.896 5.136 8.771-8.393z"></path>
    <path  d="M19.961 30.593l7.707-7.375-7.707-2.093z"></path>
  </symbol>
  <symbol version="1.1" xmlns="http://www.w3.org/2000/svg" viewBox="0 0 32 32" id="person-black">
    <title>person-black</title>
    <path d="M16 16c2.946 0 5.33-2.384 5.33-5.33s-2.384-5.339-5.33-5.339c-2.946 0-5.33 2.393-5.33 5.339s2.384 5.33 5.33 5.33zM16 18.67c-3.563 0-10.67 1.786-10.67 5.33v1.33c0 0.732 0.607 1.339 1.339 1.339h18.661c0.732 0 1.339-0.607 1.339-1.339v-1.33c0-3.545-7.107-5.33-10.67-5.33z"></path>
  </symbol>
  <symbol version="1.1" xmlns="http://www.w3.org/2000/svg" viewBox="0 0 32 32" id="phone-black">
    <title>phone-black</title>
    <path d="M24.884 19.777l-3.268-0.375c-0.786-0.089-1.563 0.179-2.116 0.732l-2.366 2.366c-3.634-1.848-6.625-4.821-8.473-8.473l2.375-2.384c0.554-0.554 0.83-1.321 0.732-2.107l-0.366-3.241c-0.161-1.304-1.25-2.286-2.563-2.286h-2.223c-1.455 0-2.67 1.214-2.58 2.67 0.688 10.982 9.473 19.759 20.446 20.438 1.455 0.089 2.661-1.116 2.661-2.571v-2.223c0.018-1.304-0.964-2.393-2.259-2.545z"></path>
  </symbol>
  <symbol version="1.1" xmlns="http://www.w3.org/2000/svg" viewBox="0 0 21 32" id="smartphone">
    <title>smartphone</title>
    <path  d="M18.135 0h-14.938c-1.76 0-3.198 1.344-3.198 2.99v25.885c0 1.646 1.438 2.99 3.198 2.99h14.938c1.76 0 3.198-1.344 3.198-2.99v-25.885c0-1.646-1.438-2.99-3.198-2.99zM3.198 1.99h14.938c0.583 0 1.063 0.448 1.063 1v20.906h-17.063v-20.906c0-0.552 0.479-1 1.063-1zM18.135 29.875h-14.938c-0.583 0-1.063-0.448-1.063-1v-2.99h17.063v2.99c0 0.552-0.479 1-1.063 1z"></path>
    <path  d="M5.021 27.177c0.417 0.385 0.417 1.021 0 1.406-0.417 0.396-1.094 0.396-1.51 0-0.417-0.385-0.417-1.021 0-1.406s1.094-0.385 1.51 0z"></path>
  </symbol>
  <symbol version="1.1" xmlns="http://www.w3.org/2000/svg" viewBox="0 0 32 32" id="square">
    <title>square</title>
    <path d="M28.443 3.557v24.886h-24.886v-24.886zM28.443 0h-24.886c-1.955 0-3.557 1.602-3.557 3.557v24.886c0 1.955 1.602 3.557 3.557 3.557h24.886c1.955 0 3.557-1.602 3.557-3.557v-24.886c0-1.955-1.602-3.557-3.557-3.557z"></path>
  </symbol>
  <symbol version="1.1" xmlns="http://www.w3.org/2000/svg" viewBox="0 0 32 32" id="telegram">
    <title>telegram</title>
    <path fill="#fff" d="M32 0l-32 18 10.229 3.785 15.771-14.785-12 16.188v8.813l5.736-6.688 7.264 2.688z"></path>
  </symbol>
  <symbol version="1.1" xmlns="http://www.w3.org/2000/svg" viewBox="0 0 32 32" id="twitter">
    <title>twitter</title>
    <path  d="M32 6.075c-1.192 0.525-2.458 0.875-3.783 1.042 1.367-0.817 2.4-2.092 2.892-3.625-1.267 0.75-2.667 1.283-4.158 1.583-1.208-1.283-2.925-2.075-4.8-2.075-3.625 0-6.55 2.95-6.55 6.558 0 0.525 0.042 1.025 0.15 1.5-5.45-0.267-10.283-2.883-13.525-6.858-0.567 0.975-0.892 2.1-0.892 3.308 0 2.275 1.167 4.292 2.908 5.458-1.050-0.025-2.083-0.325-2.958-0.808 0 0.017 0 0.042 0 0.067 0 3.192 2.267 5.842 5.25 6.45-0.533 0.142-1.117 0.217-1.717 0.217-0.417 0-0.842-0.025-1.242-0.117 0.85 2.6 3.258 4.508 6.125 4.575-2.225 1.742-5.058 2.8-8.133 2.8-0.533 0-1.050-0.025-1.567-0.092 2.908 1.875 6.35 2.942 10.067 2.942 12.067 0 18.667-10 18.667-18.667 0-0.292-0.008-0.575-0.025-0.85 1.308-0.925 2.4-2.075 3.292-3.408z"></path>
  </symbol>
</svg>